<?xml version="1.0" encoding="UTF-8"?>
<svg xmlns="http://www.w3.org/2000/svg" id="Layer_1" data-name="Layer 1" viewBox="0 0 512 512">
  <defs>
    <style>
      .cls-1 {
        fill: #2f509f;
      }

      .cls-1, .cls-2, .cls-3, .cls-4 {
        stroke-width: 0px;
      }

      .cls-1, .cls-3, .cls-4 {
        fill-rule: evenodd;
      }

      .cls-2, .cls-3 {
        fill: #fff;
      }

      .cls-4 {
        fill: #b42327;
      }

      .cls-5 {
        fill: none;
        stroke: #fff;
        stroke-miterlimit: 10;
        stroke-width: 20.88px;
      }
    </style>
  </defs>
  <path class="cls-2" d="M469.68,254c0,119.12-96.56,215.68-215.68,215.68S38.32,373.12,38.32,254,134.88,38.32,253.99,38.32s215.68,96.56,215.68,215.68"></path>
  <path class="cls-4" d="M148.76,156.03c19.38,7.89,30.33,23.3,38.19,41.33,8.33,19.13,12.89,39.41,17.34,59.7,4.55,20.75,8.63,41.61,14.05,62.16.95,3.6.45,6.09-2.91,8.5-29.44,21.12-58.74,42.43-88.09,63.66-.97.7-2.06,1.22-3.52,2.08-4.53-8.51-7-17.71-9.61-26.78-7.19-25-10.5-50.6-10.31-76.59.36-48.09,14.58-91.77,42.21-131.11.55-.78,1.15-1.53,1.74-2.28.14-.18.38-.29.9-.68"></path>
  <path class="cls-4" d="M229.13,317.66c-5.04-23.42-9.61-45.88-14.76-68.2-4.98-21.62-10.27-43.16-20.22-63.26-7.99-16.16-18.92-29.35-34.89-38.07-1.01-.55-1.84-1.43-2.97-2.32,3.89-7.29,10.13-12.35,15.49-18.05,9.49-10.09,9.62-9.82,22.91-5.28,15.42,5.26,29.91,12.52,44.32,20,4.2,2.18,6.61,4.63,5.9,9.98-.71,5.4-.16,10.97-.16,16.95-13.35,1.15-25.9-1.72-39.1-.93,3.23,6.2,8.16,10.47,12.88,14.47,4.19,3.54,6.41,7.34,7.36,12.51.78,4.28,10.79,12.19,15,12.27,2.58.05,3.5-2.03,4.55-3.95,3.68-6.71,11.71-7.78,17.58-2.53,3.44,3.07,6.43,6.28,7.98,10.82,1.06,3.11,2.94,5.84,5.1,8.51,3.17,3.91,6.38,7.79,7.44,13.31,1.43,7.5,7.98,10.04,14.67,11.63,1.84.44,3.87.13,5.48,1.4,1.25.98,2.41,1.31,3.83.18,1.83-1.44.27-2.49-.28-3.61-2.95-6.02-2.25-12.02-.26-18.13,1.64-5,9.99-11.96,14.56-12.18,1.9-.09,3.15.43,4.34,1.84,5.6,6.56,11.29,13.04,16.35,20.7-37.54,27.18-74.82,54.18-113.14,81.93"></path>
  <path class="cls-4" d="M277.68,113.77h-30.9c-1.32,5.83-.31,12.08-1.23,19.24-17.4-8.9-34.37-17.87-54-23.63,9.76-8.76,19.21-15.85,29.33-22.12,2.44-1.51,4.24.07,6.04.73,9.65,3.53,19.42,6.51,29.51,8.51,13.16,2.62,26.47,4.84,39.81,5.4,50.82,2.14,93.69,21.59,129.38,57.48,2.84,2.85,6.15,5.29,8.77,9.61-27.4,19.87-54.71,39.66-82.47,59.78-5.84-7.27-11.78-14.4-17.39-21.79-1.52-2-1.81-4.5,1.94-5.36,6.65-1.52,9.22-5.47,9.61-12.67.28-5.12,1.26-9.78-1.75-14.27-3.82-5.71-3.2-12.3-3.76-18.66-.17-1.87-.22-3.76-.3-5.21-1.29-1.45-2.72-.74-3.71-1.29-6.34-3.5-12.81-4.93-19.7-1.62-6.19-2.68-13.07.01-19.54-3.21-4.3-2.14-9.71-2.3-14.55-4.16-3.95-1.51-5.24-3.27-5.15-7.11.15-6.24.04-12.49.04-19.65"></path>
  <path class="cls-1" d="M135.8,152.83c-50.82,77.4-55.12,159.17-22.98,245.69-4.41-2.67-6.63-5.36-8.93-7.89-26.41-29.13-43.11-62.97-49.76-101.82-5.49-32.04-3.1-63.49,6.08-94.54.53-1.8,1.15-3.87,2.41-5.12,11.08-11,22.31-21.85,36.12-29.52,8.03-4.46,16.52-7.55,25.78-8.18,3.79-.25,7.63-.91,11.28,1.37"></path>
  <path class="cls-4" d="M374.51,333c1.61,33.5-3.78,64.59-17.26,94.22-1.29,2.83-3.15,4.51-5.79,5.94-27.48,14.84-56.74,23.04-88,24.07-8.61.29-17.17.08-26.27-.63.67-7.98,1.28-15.56,1.96-23.14.25-2.84,2.79-3.76,4.66-5.14,23.24-17.04,46.5-34.04,69.77-51.04,18.23-13.31,36.47-26.61,54.71-39.91,1.72-1.26,3.49-2.45,6.22-4.37"></path>
  <path class="cls-4" d="M369.32,421.54c2.62-10,5.96-19.66,8.24-29.65,4.52-19.77,6.2-39.78,5.28-59.99-.15-3.17.21-5.47,2.94-7.44,22.51-16.34,44.95-32.76,67.43-49.15.36-.26.89-.27,2.33-.68-6.91,62.17-35.47,110.94-86.22,146.91"></path>
  <path class="cls-4" d="M414.49,133.58c-1.61-.11-2.83-1.14-4.05-2.14-26.4-21.66-56.75-33.77-90.48-38.28-16.14-2.16-32.38-3.29-48.49-5.53-11.6-1.61-22.9-4.49-34.08-7.91-.36-.11-.56-.72-1.05-1.4,10.7-6.84,22.3-11.73,33.93-16.53,1.1-.46,2.3-.7,3.34-1.25,11.27-5.97,22.61-5.29,34.59-1.74,37.91,11.24,70.19,31.21,96.71,60.53,3.5,3.87,7.53,8.14,9.82,12.17.32.56.4,1.33-.22,2.08"></path>
  <path class="cls-1" d="M167.1,115.78c-6.98,7.43-13.68,14.89-20.04,22.66-1.41,1.73-2.43,3.63-5.74,2.93-24.22-5.14-44.44,3.99-63.08,18.33-1.11.86-2.02,2.05-4.09,2.36,1.91-5.4,4.89-9.91,7.72-14.46,7.85-12.66,17.32-24.05,27.51-34.88,2.29-2.43,4.72-3.61,8.1-3.68,15.88-.36,31.52,1.39,47.01,4.7.94.2,1.87.46,2.61,2.06"></path>
  <path class="cls-1" d="M126.89,97.38c8.47-7.73,16.77-12.92,25.2-17.85,7.84-4.59,15.99-8.63,24.34-12.24,1.77-.76,3.29-1.68,5.4-.73,8.95,4.03,17.9,8.04,26.41,12.97.33.19.41.82.72,1.49-6.78,5.14-14.25,9.68-20.28,15.67-7.03,6.97-13.74,8.71-23.46,5.77-11.81-3.57-24.38-4.35-38.32-5.07"></path>
  <path class="cls-1" d="M260.49,52.66c-9.37,5.13-19.43,8.63-28.02,14.56-8.13,5.63-15.14,6.06-23.08.12-3.56-2.66-7.98-4.16-13.37-6.87,21.87-6.89,42.97-8.85,64.47-7.82"></path>
  <path class="cls-4" d="M228.89,455.64c-6.57-.75-11.85-1.5-17.72-3.47,6.4-4.7,12.12-8.89,18.37-13.49,1.99,5.83-1.22,10.94-.65,16.96"></path>
  <path class="cls-5" d="M176.62,369.16c1.29,1.62,2.34,2.84,3.3,4.15,3.19,4.36,6.34,8.75,9.75,13.48-4.56,3.35-8.73,6.41-13.05,9.58-1.51-.81-2.86-1.54-4.88-2.63-.72.66-1.38,1.27-2.4,2.2,8.53,11.73,16.55,22.75,24.52,33.71,1.61-.66,2.68-1.1,4.24-1.74,3.17,4.21,6.42,8.54,10.12,13.47-4.15,3.07-8.08,5.99-12.03,8.88-3.99,2.92-8,5.81-12.57,9.13-3.44-4.6-6.63-8.88-9.89-13.25.99-1.46,1.76-2.6,2.79-4.13-7.97-10.92-16.03-21.96-23.91-32.76-4.69,1-2.74,3.51-2.11,6.05-4.22,3.07-3.67,2.67-8.55,6.23-6.75-9.25-9.11-7.84-15.07-16.01,17.34-13.23,32.28-23.44,49.73-36.35Z"></path>
  <path class="cls-1" d="M209.24,345.41c8.26-6,16.23-11.8,24.56-17.86,3.38,4.53,6.48,8.66,9.87,13.21-.82,1.27-1.66,2.55-2.72,4.18,7.83,10.78,15.75,21.67,23.76,32.7,1.57-.4,2.87-.73,4.74-1.2,3.08,4.18,6.29,8.52,9.83,13.31-8.23,6.01-16.19,11.82-24.57,17.94-3.33-4.52-6.39-8.67-9.68-13.15.75-1.33,1.5-2.68,2.46-4.39-2.11-2.89-4.3-5.88-6.88-9.4-4.23,3.13-7.94,5.88-12.02,8.9,2.6,3.51,4.83,6.52,6.99,9.43,1.71-.52,3.01-.92,4.57-1.39,3.12,4.3,6.16,8.49,9.76,13.45-8.13,5.95-16.04,11.75-24.42,17.89-3.37-4.49-6.47-8.63-9.9-13.21.75-1.24,1.52-2.53,2.6-4.3-7.64-10.53-15.42-21.24-23.49-32.37-1.4.28-2.9.57-4.97.98-3.05-4.15-6.24-8.5-9.76-13.31,8.08-5.92,15.86-11.64,24.36-17.88,3.35,4.36,6.6,8.58,10.06,13.07-.8,1.43-1.55,2.77-2.51,4.47,1.71,2.35,3.46,4.74,5.51,7.55,4.15-3.07,7.73-5.71,11.78-8.71-1.9-2.74-3.61-5.2-5.42-7.81-1.58.45-2.85.82-4.67,1.33-3.08-4.2-6.26-8.56-9.84-13.45"></path>
  <path class="cls-1" d="M293.6,379.34c-5.7-.82-11.3-1.62-17.25-2.47-2.75-3.71-5.55-7.49-8.82-11.91,5.63-4.15,11.04-8.15,16.46-12.15,2.44,2.25,4.45,4.12,7.12,6.58,3.98-2.93,7.64-5.63,12.06-8.88-2.72-3.46-4.79-6.08-7.28-9.24-6.9,4.85-13.05,9.17-19.82,13.94-5.09-.68-10.69-1.43-17.14-2.29-4.31-5.85-8.92-12.1-13.58-18.41.98-5.99,1.93-11.79,2.86-17.5,9.07-6.58,17.88-12.97,26.98-19.57,5.56.77,11.16,1.55,17.37,2.4,2.74,3.7,5.65,7.62,9.01,12.16-5.93,4.42-11.34,8.45-16.71,12.46-2.4-2.55-4.45-4.7-6.64-7.01-4.6,2.68-8.88,4.6-11.58,9.87,1.97,2.53,4.03,5.17,6.54,8.39,6.84-4.83,12.98-9.18,19.81-14,5.26.73,11.07,1.53,17.24,2.39,4.31,5.86,8.65,11.75,13.32,18.11-.89,5.54-1.83,11.34-2.81,17.38-9.02,6.57-18,13.11-27.14,19.77"></path>
  <path class="cls-1" d="M176.62,369.16c1.29,1.62,2.34,2.84,3.3,4.15,3.19,4.36,6.34,8.75,9.75,13.48-4.56,3.35-8.73,6.41-13.05,9.58-1.51-.81-2.86-1.54-4.88-2.63-.72.66-1.38,1.27-2.4,2.2,8.53,11.73,16.55,22.75,24.52,33.71,1.61-.66,2.68-1.1,4.24-1.74,3.17,4.21,6.42,8.54,10.12,13.47-4.15,3.07-8.08,5.99-12.03,8.88-3.99,2.92-8,5.81-12.57,9.13-3.44-4.6-6.63-8.88-9.89-13.25.99-1.46,1.76-2.6,2.79-4.13-7.97-10.92-16.03-21.96-23.91-32.76-4.69,1-2.74,3.51-2.11,6.05-4.22,3.07-8.55,6.23-13.44,9.78-4.27-5.84-8.27-11.33-12.82-17.56,17.34-13.23,34.92-25.44,52.37-38.35"></path>
  <path class="cls-1" d="M304.22,299.07c-1.63.44-2.94.79-4.77,1.29-3.07-4.21-6.25-8.58-9.8-13.45,12.8-9.35,25.38-18.54,38.21-27.91,5.6.77,11.2,1.55,17.39,2.41,3.6,4.86,7.37,9.97,11.13,15.05v7.66c2.14.59,4.32,1.2,6.92,1.92,4.14,5.65,8.47,11.55,13.03,17.78-.94,5.71-1.9,11.5-2.87,17.42-12.75,9.28-25.34,18.43-38.38,27.92-3.33-4.47-6.41-8.61-9.84-13.21.74-1.23,1.52-2.52,2.59-4.27-7.63-10.54-15.39-21.25-23.6-32.6M347.67,301.59c-4.04,2.91-6.81,4.89-10.02,7.2,2.86,3.91,5.29,7.24,7.94,10.87,3.67-2.82,8.1-3.89,9.25-9.33-2.14-2.6-4.4-5.37-7.17-8.74M320.8,285.65c2.44,3.27,4.35,5.83,6.48,8.68,4.47-.97,7.99-2.56,9.66-7.53-1.73-1.98-4.03-5.51-6.17-7.96-3.5,2.39-6.35,4.33-9.98,6.8"></path>
  <path class="cls-3" d="M451.63,188.92c-.47,1.6-.78,2.68-1.19,4.08,12.26,7.68,24.49,15.33,36.73,23,1.51-.61,2.78-1.12,4.56-1.84,3.13,4.26,6.31,8.62,9.94,13.57-7.83,5.76-53.8,39.29-62.03,45.21-3.41-4.58-6.49-8.71-9.68-13,.99-1.64,1.82-3.01,2.82-4.67-3.42-13.53-6.91-27.28-10.36-40.92-7.14-2.32-8.87-9.24-13.54-14.32,11.07-8.05,21.76-15.83,33.13-24.11,3.31,4.48,6.36,8.6,9.61,12.98M453.6,218.91c-3.81-2.44-6.64-4.25-9.46-6.05-.38.28-.75.57-1.12.85.79,3.21,1.58,6.42,2.56,10.41,2.82-1.83,4.88-3.17,8.03-5.2"></path>
  <path class="cls-5" d="M451.63,188.92c-.47,1.6-.78,2.68-1.19,4.08,12.26,7.68,24.49,15.33,36.73,23,1.51-.61,2.78-1.12,4.56-1.84,3.13,4.26,6.31,8.62,9.94,13.57-7.83,5.76-53.8,39.29-62.03,45.21-3.41-4.58-6.49-8.71-9.68-13,.99-1.64,1.82-3.01,2.82-4.67-3.42-13.53-6.91-27.28-10.36-40.92-7.14-2.32-8.87-9.24-13.54-14.32,11.07-8.05,21.76-15.83,33.13-24.11,3.31,4.48,6.36,8.6,9.61,12.98ZM453.6,218.91c-3.81-2.44-6.64-4.25-9.46-6.05-.38.28-.75.57-1.12.85.79,3.21,1.58,6.42,2.56,10.41,2.82-1.83,4.88-3.17,8.03-5.2Z"></path>
  <path class="cls-1" d="M451.63,188.92c-.47,1.6-.78,2.68-1.19,4.08,12.26,7.68,24.49,15.34,36.73,23,1.51-.61,2.78-1.11,4.56-1.83,3.13,4.26,6.31,8.62,9.94,13.57-7.83,5.76-15.42,11.34-23.45,17.24-4.41-5.12-9.05-9.79-10.99-17.56-6.02,4.3-11.62,8.29-18,12.84,7.19,3.55,9.47,9.78,14.08,15.08-7.57,6.27-15.44,11.69-23.68,17.61-3.41-4.58-6.49-8.71-9.68-13,.99-1.64,1.82-3.01,2.82-4.67-3.42-13.53-6.91-28.75-10.36-42.39-2.16-.7-3.74-.23-4.47-.96-3.19-3.19-5.54-7.31-9.07-11.9,11.07-8.05,21.76-15.83,33.13-24.11,3.31,4.48,6.36,8.6,9.61,12.98M455.89,219.1c-5.45-3.49-9.51-6.08-13.55-8.68-.54.41-1.07.81-1.61,1.22,1.13,4.6,2.26,9.2,3.66,14.91,4.05-2.62,7-4.54,11.5-7.45"></path>
  <path class="cls-1" d="M427.58,266.09c-.65,5.08-1.06,9.79-1.96,14.42-.33,1.69-1.49,3.62-2.86,4.66-8.29,6.28-16.74,12.34-25.14,18.46-5.93-.96-11.51-1.85-17.38-2.8-10.27-14.18-20.51-28.33-30.6-42.28.97-6.16,1.84-11.75,2.73-17.37,9.09-6.62,18.08-13.16,27.19-19.79,5.67.89,11.25,1.77,17.42,2.74,9.96,13.65,20.13,27.59,30.62,41.96M395.14,281.34c4.37-3,8.59-5.95,11.22-8.39-8.42-10.74-15.04-20.6-24.02-31.69-4.01,2.82-7.4,5.19-10.51,7.37,3.64,6.06,15.95,22.18,23.31,32.71"></path>
</svg>
