<svg xmlns="http://www.w3.org/2000/svg" viewBox="0 0 381.43 131.59"><defs><style>.cls-1,.cls-3{fill:#f1f2f2;}.cls-2{fill:#e93230;}.cls-3{font-size:32px;font-family:Avenir-Black, Avenir;}.cls-4{letter-spacing:0.02em;}</style></defs><title>uil-logo-web</title><g id="Layer_2" data-name="Layer 2"><g id="Layer_1-2" data-name="Layer 1"><path class="cls-1" d="M64.32,30.69l-9.19-7H36.22V63l.23.14.23.15.25.15.23.08.25,0,.23-.06.29-.17.17,0,.19.06.17.08.19.12.17.06.17,0,.17-.08.19-.17.31,0,.27.1.21.17.19.23.13.27.17.27.19.25.25.23.33-.25.4-.13.42-.06.46,0,.44,0,.44,0H44l.38,0,.25.15.27.15.29.13.29.13.29.06.31,0,.31-.06.31-.1.21,0,.23.08.21.1.21.13.17.1.21.12.23.06.25,0,.19-.19.21-.25L49,65l.21-.25.19-.23.25-.12.29,0,.35.15.33.23.33,0,.29-.12.31-.17.29-.19.29-.08.29.06.31.29.12.1.13.06.15,0,.17,0h.14l.15,0,.12.06.14.12.25.37.33.21.37.08.4,0h.37l.39.08.31.21.27.4.23.06.23,0,.23-.12.25-.12.17-.1.15,0,.1.17.06.4,0,.27,0,.27,0,.27,0,.27L58,68l0,.29v.6l.39.31.1.81v.85l-.08.85,0,.85,0,.79.12.77.27.67.52.64-.06.52.19.4.31.31.39.29.33.29.23.35,0,.42-.23.6.12.23.13.23.12.25.1.27,0,.25,0,.27-.06.27-.08.27-.5.44-.21.56,0,.58.08.64,0,.6,0,.6-.25.54-.54.46-.08.12v.12l.06.06.12.08.08.06.06.1,0,.12-.06.17-.48.21-.44.27-.44.29-.4.35-.42.33-.4.35-.4.35-.4.35-.5-.06.06-.21,0-.15-.06-.13-.08-.08-.14-.1-.12-.06-.13,0-.12,0-.08-1.23-.15.12-.08.19-.08.17-.06.19-.08.15-.1.13-.13.06-.19,0,.12.23.13.23.08.25.06.25v.23l0,.25-.12.23-.15.25-.23.35-.27.35-.31.27-.33.25-.38.17-.39.15-.39.1-.39.06-.19.35-.25.29-.33.21-.33.19-.38.17-.35.21-.33.23-.27.33-.14,0h-.12l-.13,0-.12,0-.12,0-.12,0-.1-.08,0-.12.17-.56L48.31,92l-.17,0-.19,0-.17.06-.19.06-.17.06h-.19L47,92.09l.08.13,0,.13-.06.12-.06.13-.12.1-.1.12-.1.1-.08.12-.25-.1-.13,0-.1.1,0,.15-.06.17,0,.17-.08.15-.12.12-.19,0-.12.1-.1.1-.08.15-.12.11-.12.12-.15,0-.19,0-.12,0,0,.08v.06l0,.11,0,.08,0,.12,0,.1,0,.1-.1.17-.1.12-.15.1-.13.08-.15,0-.15.08-.15.06-.12.12.29.31.15.37,0,.35,0,.38-.12.37-.1.39-.12.38-.06.38-.25.25.15.1.12.14.06.17,0,.19,0,.17,0,.21,0,.19,0,.19-.56.73,1.06,4.54-.4.17-.38,0-.4-.1-.37-.15-.39-.21-.39-.21-.38-.19L41,105h-.44l-.4-.08-.4-.15-.39-.17-.38-.19-.39-.13-.42-.08-.4.06-.19-.1-.13-.13-.14-.17-.12-.15-.14-.15-.15-.1-.21,0-.23.1-.17-.21-.19-.13-.21-.08-.19-.06-.23-.08-.19-.08-.17-.14-.12-.17.06-1.48-.27-.14-.23-.11-.23-.15-.17-.15-.17-.21-.15-.19-.15-.23-.12-.23,0-.35,0-.31,0-.31,0-.29v-.31l0-.29,0-.29-.06-.29-.17-.12L33.25,97l-.17-.06-.15-.06-.19-.08-.19-.06-.17-.08-.15-.1,0-.58-.1-.48-.23-.44-.29-.37-.37-.37L30.88,94l-.37-.35-.29-.33L30,93l-.17-.37-.15-.4-.13-.4-.17-.4-.19-.33-.27-.29-.35-.19-.39-.4-.23-.44-.15-.48-.12-.48-.15-.5-.21-.46L27,87.41l-.48-.35L26.43,87l0-.12,0-.12,0-.12-.06-.12,0-.1-.1-.1-.1,0-.4.08-.29-.08-.23-.17L25,85.85l-.19-.23-.21-.15-.27,0-.35.13-.33.08-.31.1-.31.06-.31.06H22l-.33-.06-.31-.1-.12-.12-.1-.1-.12-.1-.1-.1-.12-.08h-.12l-.12,0-.12.14-.31.17-.27.21-.25.21-.17.27-.17.27-.1.33-.06.35,0,.42-.44.19-.35.31-.31.37-.25.37-.31.27-.33.17-.4,0L16.36,89l-.29-.25-.29-.23-.29-.27L15.22,88l-.31-.23-.33-.17-.35-.13-.37,0-.35-.58-.42-.42-.48-.37-.48-.29-.5-.31-.42-.33-.37-.42-.21-.52,0-.33,0-.31.08-.31.1-.29,0-.31,0-.25-.13-.25L10.45,82l-.12-.15,0-.15V81.5l0-.14,0-.15,0-.15,0-.15-.06-.12-.29-.4-.37-.21L9.25,80l-.42-.08-.42-.13-.33-.21-.21-.35,0-.52-.48-.29L7,78.11l-.31-.4-.23-.39-.27-.42-.27-.35-.37-.31-.46-.17L5,75.8l-.13-.21-.23-.17-.21-.13-.23-.17-.15-.17L4,74.68l.06-.31-.25-.15-.17-.15-.15-.19-.1-.19-.1-.25,0-.23,0-.25,0-.25.25-.19,1.85.06,1.85.08L9,72.7l1.87.08,1.85,0,1.85.06,1.87,0,1.87,0,.25-.44.11-2.62.14-2.58.1-2.58.1-2.56.08-2.6.08-2.6.08-2.64.08-2.64.13-.12,8.62.16v-28H0V95.15H0c0,.07,0,.13,0,.2,0,9.89,9.46,18.15,22.11,20.2a43.83,43.83,0,0,0,10,1.15q1,0,2,0t1.88,0c15.6,0,28.24-9.41,28.24-21q0-.27,0-.53h0Z"/><polygon class="cls-2" points="84.92 0 91.44 18.77 111.31 19.18 95.47 31.19 101.23 50.21 84.92 38.86 68.6 50.21 74.36 31.19 58.52 19.18 78.39 18.77 84.92 0"/><polygon class="cls-1" points="84.92 45.66 69.25 56.56 69.25 116.04 100.58 116.04 100.58 56.56 84.92 45.66"/><polygon class="cls-1" points="136.5 86.8 136.5 23.72 113.69 23.72 105.13 30.21 105.13 86.8 105.13 116.04 136.5 116.04 158.49 116.04 158.49 86.8 136.5 86.8"/><text class="cls-3" transform="translate(163.96 47.2)"><tspan class="cls-4">University</tspan><tspan x="0" y="35.92">Interscholastic</tspan><tspan class="cls-4"><tspan x="0" y="69.77">League</tspan></tspan></text></g></g></svg>